Coordinates
version=1
nRows=8
nColumns=60
inDegrees=yes

Units are S.I. units (second, meters, Newtons, ...)
If the header above contains a line with 'inDegrees', this indicates whether rotational values are in degrees (yes) or radians (no).

endheader
time	pelvis_tilt	pelvis_list	pelvis_rotation	pelvis_tx	pelvis_ty	pelvis_tz	hip_flexion_r	hip_adduction_r	hip_rotation_r	knee_angle_r_beta	knee_angle_r	ankle_angle_r	subtalar_angle_r	mtp_angle_r	hip_flexion_l	hip_adduction_l	hip_rotation_l	knee_angle_l_beta	knee_angle_l	ankle_angle_l	subtalar_angle_l	mtp_angle_l	L5_S1_Flex_Ext	L5_S1_Lat_Bending	L5_S1_axial_rotation	L4_L5_Flex_Ext	L4_L5_Lat_Bending	L4_L5_axial_rotation	L3_L4_Flex_Ext	L3_L4_Lat_Bending	L3_L4_axial_rotation	L2_L3_Flex_Ext	L2_L3_Lat_Bending	L2_L3_axial_rotation	L1_L2_Flex_Ext	L1_L2_Lat_Bending	L1_L2_axial_rotation	L1_T12_Flex_Ext	L1_T12_Lat_Bending	L1_T12_axial_rotation	Abs_r3	Abs_r2	Abs_r1	Abs_t1	Abs_t2	arm_flex_r	arm_add_r	arm_rot_r	elbow_flex_r	pro_sup_r	wrist_flex_r	wrist_dev_r	arm_flex_l	arm_add_l	arm_rot_l	elbow_flex_l	pro_sup_l	wrist_flex_l	wrist_dev_l
      0.00000000	     -0.60870881	     24.39763604	     93.92490172	      0.39077160	      0.94952674	      0.20036746	    -27.76270656	     -3.99860361	     -6.15633378	      0.10612569	     -6.08055416	     13.19980085	      0.00000000	      0.00000000	    -25.44451552	     -5.95031191	     -3.94633314	      0.13427708	     -7.69351005	     15.19642297	      0.00000000	      0.00000000	     -5.33986997	      0.23745720	     -0.20767270	     -9.91667253	      0.31581808	     -0.22065224	     -8.77287238	      0.57735345	     -0.22065224	     -6.10293739	      0.57735345	     -0.18171361	     -4.95860326	      0.48422273	     -0.16873407	     -3.05120170	      0.36782121	     -0.15575452	    -38.14215723	      2.68616339	     -1.15501325	      0.00000000	      0.00000000	     13.41725346	    -11.60392627	     11.93335664	     16.67647265	    111.95110427	     12.76174673	     -1.93684879	     16.08001118	    -10.82326691	     33.20419209	     16.87756862	    102.39117888	     17.30814066	     -7.55259167
      0.01000000	     -0.59080428	     24.43618169	     93.94618973	      0.39077420	      0.94954658	      0.20040732	    -27.80329002	     -3.96319687	     -6.13726382	      0.10623611	     -6.08688095	     13.19923771	      0.00000000	      0.00000000	    -25.47757923	     -5.98518744	     -3.98135969	      0.13411729	     -7.68435479	     15.20831021	      0.00000000	      0.00000000	     -5.34303534	      0.23994890	     -0.21729270	     -9.92255093	      0.31913204	     -0.23087350	     -8.77807276	      0.58341176	     -0.23087350	     -6.10655509	      0.58341176	     -0.19013111	     -4.96154262	      0.48930380	     -0.17655032	     -3.05301039	      0.37168085	     -0.16296953	    -38.16476714	      2.71434995	     -1.20851682	      0.00000000	      0.00000000	     13.51106112	    -11.59254542	     12.08841807	     16.52941993	    111.86183431	     12.74353909	     -1.88591387	     16.06483626	    -10.84533158	     33.27557521	     16.83965622	    102.19321053	     17.30718824	     -7.57178919
      0.02000000	     -0.57525607	     24.50366381	     93.95660084	      0.39081995	      0.94958770	      0.20045491	    -27.87352946	     -3.93024219	     -6.14825051	      0.10623134	     -6.08660747	     13.16832036	      0.00000000	      0.00000000	    -25.54498122	     -6.01866136	     -3.95432339	      0.13425361	     -7.69216549	     15.22004679	      0.00000000	      0.00000000	     -5.35376736	      0.24298731	     -0.20407324	     -9.94248137	      0.32317312	     -0.21682782	     -8.79570440	      0.59079933	     -0.21682782	     -6.11882072	      0.59079933	     -0.17856408	     -4.97150837	      0.49549971	     -0.16580951	     -3.05914267	      0.37638734	     -0.15305493	    -38.24142488	      2.74872099	     -1.13499414	      0.00000000	      0.00000000	     13.43890451	    -11.55855101	     11.15043470	     16.63717391	    112.81387723	     12.92524508	     -1.94403537	     16.10161428	    -10.84624878	     33.17734690	     16.80962458	    102.61806694	     17.11873873	     -7.84846748
      0.03000000	     -0.53907160	     24.56063499	     93.96346252	      0.39086865	      0.94963593	      0.20056233	    -27.91249677	     -3.87997788	     -6.13778988	      0.10674897	     -6.11626552	     13.18446869	      0.00000000	      0.00000000	    -25.58137210	     -6.07497672	     -3.93080209	      0.13469711	     -7.71757572	     15.20204779	      0.00000000	      0.00000000	     -5.36298903	      0.24635828	     -0.19947650	     -9.95960692	      0.32765651	     -0.21194378	     -8.81085467	      0.59899552	     -0.21194378	     -6.12936016	      0.59899552	     -0.17454193	     -4.98007161	      0.50237380	     -0.16207465	     -3.06441193	      0.38160897	     -0.14960737	    -38.30729433	      2.78685411	     -1.10942843	      0.00000000	      0.00000000	     13.41070830	    -11.59984575	     11.24378040	     16.70846831	    112.42987008	     13.07841541	     -1.90083755	     16.12436944	    -10.86182562	     33.23516582	     16.80552661	    102.36611353	     17.15258499	     -7.92138050
      0.04000000	     -0.57373617	     24.57759977	     93.98766779	      0.39081575	      0.94961238	      0.20056295	    -27.95825795	     -3.90871076	     -6.17071706	      0.10594634	     -6.07027800	     13.20730202	      0.00000000	      0.00000000	    -25.59997875	     -6.04443118	     -3.98840369	      0.13452502	     -7.70771564	     15.21482695	      0.00000000	      0.00000000	     -5.35985400	      0.24272796	     -0.21312874	     -9.95378486	      0.32282819	     -0.22644929	     -8.80570414	      0.59016877	     -0.22644929	     -6.12577714	      0.59016877	     -0.18648765	     -4.97716042	      0.49497086	     -0.17316710	     -3.06262058	      0.37598561	     -0.15984655	    -38.28490113	      2.74578725	     -1.18535811	      0.00000000	      0.00000000	     13.50323324	    -11.70482640	     12.68048631	     16.61857130	    111.35486700	     12.85413845	     -1.88141505	     16.10903195	    -10.95650833	     33.82871961	     16.79579025	    101.77984094	     17.14405682	     -7.95742703
      0.05000000	     -0.56015347	     24.57301981	     93.97246548	      0.39089639	      0.94958966	      0.20059338	    -27.93040110	     -3.89475137	     -6.17791552	      0.10653682	     -6.10411029	     13.22527703	      0.00000000	      0.00000000	    -25.59340654	     -6.05920482	     -4.00482382	      0.13452199	     -7.70754232	     15.23875919	      0.00000000	      0.00000000	     -5.36022254	      0.24258662	     -0.20770246	     -9.95446928	      0.32264020	     -0.22068386	     -8.80630962	      0.58982510	     -0.22068386	     -6.12619834	      0.58982510	     -0.18173965	     -4.97750265	      0.49468263	     -0.16875825	     -3.06283116	      0.37576667	     -0.15577684	    -38.28753360	      2.74418833	     -1.15517875	      0.00000000	      0.00000000	     13.44938359	    -11.57729159	     11.25868333	     16.67071201	    112.73413364	     12.90379795	     -1.91238126	     16.06955731	    -10.92016460	     33.20919421	     16.77266677	    102.35470082	     17.07628567	     -7.94082681
      0.06000000	     -0.57167275	     24.58838438	     93.97849936	      0.39090430	      0.94959330	      0.20067268	    -27.92969626	     -3.90620490	     -6.14463883	      0.10704589	     -6.13327772	     13.23177410	      0.00000000	      0.00000000	    -25.58988591	     -6.05105440	     -3.98808525	      0.13506987	     -7.73893335	     15.22456075	      0.00000000	      0.00000000	     -5.36018398	      0.23972250	     -0.21072306	     -9.95439768	      0.31883092	     -0.22389325	     -8.80624627	      0.58286129	     -0.22389325	     -6.12615428	      0.58286129	     -0.18438268	     -4.97746685	      0.48884212	     -0.17121249	     -3.06280913	      0.37133015	     -0.15804230	    -38.28725818	      2.71178886	     -1.17197846	      0.00000000	      0.00000000	     13.52459580	    -11.64225120	     12.33098183	     16.54907688	    111.51090154	     12.70588910	     -1.85069910	     16.10239867	    -10.99805400	     33.85140591	     16.73686182	    101.60368725	     17.08944679	     -7.93651029
      0.07000000	     -0.58308368	     24.58382955	     93.98120536	      0.39091555	      0.94957390	      0.20070568	    -27.90727968	     -3.91918951	     -6.14770254	      0.10761233	     -6.16573251	     13.24708662	      0.00000000	      0.00000000	    -25.58004536	     -6.04109047	     -3.99218357	      0.13513831	     -7.74285489	     15.23015931	      0.00000000	      0.00000000	     -5.36095806	      0.23900289	     -0.20508516	     -9.95583521	      0.31787384	     -0.21790298	     -8.80751799	      0.58111163	     -0.21790298	     -6.12703896	      0.58111163	     -0.17944951	     -4.97818565	      0.48737469	     -0.16663169	     -3.06325143	      0.37021548	     -0.15381387	    -38.29278731	      2.70364849	     -1.14062212	      0.00000000	      0.00000000	     13.44918519	    -11.57245478	     11.14506230	     16.67928838	    112.78051199	     13.04549338	     -1.89598191	     16.08285264	    -10.94959545	     33.31342909	     16.71642623	    102.33413288	     17.06511565	     -7.86586404
